<?xml version="1.0" encoding="UTF-8" standalone="no"?>
<!DOCTYPE svg PUBLIC "-//W3C//DTD SVG 1.1//EN"
 "http://www.w3.org/Graphics/SVG/1.1/DTD/svg11.dtd">
<!-- Generated by graphviz version 2.43.0 (0)
 -->
<!-- Title: %3 Pages: 1 -->
<svg width="210pt" height="566pt"
 viewBox="0.00 0.00 209.60 566.00" xmlns="http://www.w3.org/2000/svg" xmlns:xlink="http://www.w3.org/1999/xlink">
<g id="graph0" class="graph" transform="scale(1 1) rotate(0) translate(4 562)">
<title>%3</title>
<polygon fill="white" stroke="transparent" points="-4,4 -4,-562 205.6,-562 205.6,4 -4,4"/>
<!-- Start -->
<g id="node1" class="node">
<title>Start</title>
<ellipse fill="none" stroke="blue" cx="142.6" cy="-540" rx="34.39" ry="18"/>
<text text-anchor="middle" x="142.6" y="-536.3" font-family="Times,serif" font-size="14.00">Start</text>
</g>
<!-- S2 -->
<g id="node5" class="node">
<title>S2</title>
<ellipse fill="none" stroke="black" cx="102.6" cy="-453" rx="27" ry="18"/>
<text text-anchor="middle" x="102.6" y="-449.3" font-family="Times,serif" font-size="14.00">S2</text>
</g>
<!-- Start&#45;&gt;S2 -->
<g id="edge12" class="edge">
<title>Start&#45;&gt;S2</title>
<path fill="none" stroke="green" d="M134.69,-522.21C129.02,-510.14 121.25,-493.64 114.78,-479.89"/>
<polygon fill="green" stroke="green" points="117.77,-478.03 110.35,-470.47 111.44,-481.01 117.77,-478.03"/>
<text text-anchor="middle" x="128.1" y="-492.8" font-family="Times,serif" font-size="14.00"> </text>
</g>
<!-- S1 -->
<g id="node12" class="node">
<title>S1</title>
<ellipse fill="none" stroke="black" cx="174.6" cy="-453" rx="27" ry="18"/>
<text text-anchor="middle" x="174.6" y="-449.3" font-family="Times,serif" font-size="14.00">S1</text>
</g>
<!-- Start&#45;&gt;S1 -->
<g id="edge13" class="edge">
<title>Start&#45;&gt;S1</title>
<path fill="none" stroke="black" d="M140.06,-521.76C139.3,-511.85 139.55,-499.35 143.6,-489 145.51,-484.12 148.42,-479.47 151.72,-475.25"/>
<polygon fill="black" stroke="black" points="154.38,-477.53 158.37,-467.71 149.13,-472.9 154.38,-477.53"/>
<text text-anchor="middle" x="148.1" y="-492.8" font-family="Times,serif" font-size="14.00">a</text>
</g>
<!-- Finish -->
<g id="node2" class="node">
<title>Finish</title>
<ellipse fill="none" stroke="orange" cx="102.6" cy="-18" rx="39.79" ry="18"/>
<text text-anchor="middle" x="102.6" y="-14.3" font-family="Times,serif" font-size="14.00">Finish</text>
</g>
<!-- S4 -->
<g id="node3" class="node">
<title>S4</title>
<ellipse fill="none" stroke="black" cx="102.6" cy="-279" rx="27" ry="18"/>
<text text-anchor="middle" x="102.6" y="-275.3" font-family="Times,serif" font-size="14.00">S4</text>
</g>
<!-- S9 -->
<g id="node4" class="node">
<title>S9</title>
<ellipse fill="none" stroke="black" cx="30.6" cy="-192" rx="27" ry="18"/>
<text text-anchor="middle" x="30.6" y="-188.3" font-family="Times,serif" font-size="14.00">S9</text>
</g>
<!-- S4&#45;&gt;S9 -->
<g id="edge1" class="edge">
<title>S4&#45;&gt;S9</title>
<path fill="none" stroke="black" d="M89.73,-262.8C78.67,-249.75 62.56,-230.74 49.95,-215.85"/>
<polygon fill="black" stroke="black" points="52.49,-213.43 43.36,-208.06 47.15,-217.96 52.49,-213.43"/>
<text text-anchor="middle" x="76.6" y="-231.8" font-family="Times,serif" font-size="14.00">4</text>
</g>
<!-- S7 -->
<g id="node7" class="node">
<title>S7</title>
<ellipse fill="none" stroke="black" cx="102.6" cy="-192" rx="27" ry="18"/>
<text text-anchor="middle" x="102.6" y="-188.3" font-family="Times,serif" font-size="14.00">S7</text>
</g>
<!-- S4&#45;&gt;S7 -->
<g id="edge11" class="edge">
<title>S4&#45;&gt;S7</title>
<path fill="none" stroke="black" d="M102.6,-260.8C102.6,-249.16 102.6,-233.55 102.6,-220.24"/>
<polygon fill="black" stroke="black" points="106.1,-220.18 102.6,-210.18 99.1,-220.18 106.1,-220.18"/>
<text text-anchor="middle" x="107.6" y="-231.8" font-family="Times,serif" font-size="14.00">2</text>
</g>
<!-- S5 -->
<g id="node11" class="node">
<title>S5</title>
<ellipse fill="none" stroke="black" cx="174.6" cy="-192" rx="27" ry="18"/>
<text text-anchor="middle" x="174.6" y="-188.3" font-family="Times,serif" font-size="14.00">S5</text>
</g>
<!-- S4&#45;&gt;S5 -->
<g id="edge9" class="edge">
<title>S4&#45;&gt;S5</title>
<path fill="none" stroke="black" d="M115.47,-262.8C126.53,-249.75 142.63,-230.74 155.24,-215.85"/>
<polygon fill="black" stroke="black" points="158.04,-217.96 161.84,-208.06 152.7,-213.43 158.04,-217.96"/>
<text text-anchor="middle" x="147.6" y="-231.8" font-family="Times,serif" font-size="14.00">1</text>
</g>
<!-- S10 -->
<g id="node10" class="node">
<title>S10</title>
<ellipse fill="none" stroke="black" cx="28.6" cy="-105" rx="28.7" ry="18"/>
<text text-anchor="middle" x="28.6" y="-101.3" font-family="Times,serif" font-size="14.00">S10</text>
</g>
<!-- S9&#45;&gt;S10 -->
<g id="edge8" class="edge">
<title>S9&#45;&gt;S10</title>
<path fill="none" stroke="black" d="M30.19,-173.8C29.92,-162.16 29.55,-146.55 29.24,-133.24"/>
<polygon fill="black" stroke="black" points="32.74,-133.09 29,-123.18 25.74,-133.26 32.74,-133.09"/>
<text text-anchor="middle" x="35.6" y="-144.8" font-family="Times,serif" font-size="14.00">8</text>
</g>
<!-- S3 -->
<g id="node6" class="node">
<title>S3</title>
<ellipse fill="none" stroke="black" cx="102.6" cy="-366" rx="27" ry="18"/>
<text text-anchor="middle" x="102.6" y="-362.3" font-family="Times,serif" font-size="14.00">S3</text>
</g>
<!-- S2&#45;&gt;S3 -->
<g id="edge2" class="edge">
<title>S2&#45;&gt;S3</title>
<path fill="none" stroke="black" d="M102.6,-434.8C102.6,-423.16 102.6,-407.55 102.6,-394.24"/>
<polygon fill="black" stroke="black" points="106.1,-394.18 102.6,-384.18 99.1,-394.18 106.1,-394.18"/>
<text text-anchor="middle" x="107.6" y="-405.8" font-family="Times,serif" font-size="14.00">b</text>
</g>
<!-- S3&#45;&gt;S4 -->
<g id="edge3" class="edge">
<title>S3&#45;&gt;S4</title>
<path fill="none" stroke="green" d="M96.91,-347.94C94.36,-338.31 92.2,-326.03 93.6,-315 93.94,-312.29 94.43,-309.49 95,-306.71"/>
<polygon fill="green" stroke="green" points="98.42,-307.46 97.33,-296.92 91.61,-305.84 98.42,-307.46"/>
<text text-anchor="middle" x="96.1" y="-318.8" font-family="Times,serif" font-size="14.00"> </text>
</g>
<!-- S3&#45;&gt;S4 -->
<g id="edge15" class="edge">
<title>S3&#45;&gt;S4</title>
<path fill="none" stroke="purple" d="M102.6,-347.8C102.6,-336.16 102.6,-320.55 102.6,-307.24"/>
<polygon fill="purple" stroke="purple" points="106.1,-307.18 102.6,-297.18 99.1,-307.18 106.1,-307.18"/>
<text text-anchor="middle" x="121.1" y="-318.8" font-family="Times,serif" font-size="14.00">^xyz</text>
</g>
<!-- S8 -->
<g id="node8" class="node">
<title>S8</title>
<ellipse fill="none" stroke="black" cx="102.6" cy="-105" rx="27" ry="18"/>
<text text-anchor="middle" x="102.6" y="-101.3" font-family="Times,serif" font-size="14.00">S8</text>
</g>
<!-- S7&#45;&gt;S8 -->
<g id="edge4" class="edge">
<title>S7&#45;&gt;S8</title>
<path fill="none" stroke="black" d="M102.6,-173.8C102.6,-162.16 102.6,-146.55 102.6,-133.24"/>
<polygon fill="black" stroke="black" points="106.1,-133.18 102.6,-123.18 99.1,-133.18 106.1,-133.18"/>
<text text-anchor="middle" x="107.6" y="-144.8" font-family="Times,serif" font-size="14.00">4</text>
</g>
<!-- S8&#45;&gt;Finish -->
<g id="edge10" class="edge">
<title>S8&#45;&gt;Finish</title>
<path fill="none" stroke="green" d="M102.6,-86.8C102.6,-75.16 102.6,-59.55 102.6,-46.24"/>
<polygon fill="green" stroke="green" points="106.1,-46.18 102.6,-36.18 99.1,-46.18 106.1,-46.18"/>
<text text-anchor="middle" x="105.1" y="-57.8" font-family="Times,serif" font-size="14.00"> </text>
</g>
<!-- S6 -->
<g id="node9" class="node">
<title>S6</title>
<ellipse fill="none" stroke="black" cx="174.6" cy="-105" rx="27" ry="18"/>
<text text-anchor="middle" x="174.6" y="-101.3" font-family="Times,serif" font-size="14.00">S6</text>
</g>
<!-- S6&#45;&gt;Finish -->
<g id="edge5" class="edge">
<title>S6&#45;&gt;Finish</title>
<path fill="none" stroke="green" d="M161.73,-88.8C150.87,-75.99 135.16,-57.44 122.65,-42.68"/>
<polygon fill="green" stroke="green" points="125.23,-40.3 116.09,-34.93 119.88,-44.82 125.23,-40.3"/>
<text text-anchor="middle" x="145.1" y="-57.8" font-family="Times,serif" font-size="14.00"> </text>
</g>
<!-- S10&#45;&gt;Finish -->
<g id="edge6" class="edge">
<title>S10&#45;&gt;Finish</title>
<path fill="none" stroke="green" d="M41.83,-88.8C52.98,-75.99 69.13,-57.44 81.98,-42.68"/>
<polygon fill="green" stroke="green" points="84.8,-44.77 88.73,-34.93 79.52,-40.17 84.8,-44.77"/>
<text text-anchor="middle" x="73.1" y="-57.8" font-family="Times,serif" font-size="14.00"> </text>
</g>
<!-- S5&#45;&gt;S6 -->
<g id="edge7" class="edge">
<title>S5&#45;&gt;S6</title>
<path fill="none" stroke="black" d="M174.6,-173.8C174.6,-162.16 174.6,-146.55 174.6,-133.24"/>
<polygon fill="black" stroke="black" points="178.1,-133.18 174.6,-123.18 171.1,-133.18 178.1,-133.18"/>
<text text-anchor="middle" x="179.6" y="-144.8" font-family="Times,serif" font-size="14.00">2</text>
</g>
<!-- S1&#45;&gt;Start -->
<g id="edge14" class="edge">
<title>S1&#45;&gt;Start</title>
<path fill="none" stroke="green" d="M168.29,-470.76C163.78,-482.74 157.62,-499.1 152.46,-512.8"/>
<polygon fill="green" stroke="green" points="149.17,-511.61 148.92,-522.21 155.72,-514.08 149.17,-511.61"/>
<text text-anchor="middle" x="162.1" y="-492.8" font-family="Times,serif" font-size="14.00"> </text>
</g>
</g>
</svg>
