<?xml version="1.0" encoding="UTF-8" standalone="no"?>
<!DOCTYPE svg PUBLIC "-//W3C//DTD SVG 1.1//EN"
 "http://www.w3.org/Graphics/SVG/1.1/DTD/svg11.dtd">
<!-- Generated by graphviz version 2.43.0 (0)
 -->
<!-- Title: %3 Pages: 1 -->
<svg width="270pt" height="740pt"
 viewBox="0.00 0.00 269.65 740.00" xmlns="http://www.w3.org/2000/svg" xmlns:xlink="http://www.w3.org/1999/xlink">
<g id="graph0" class="graph" transform="scale(1 1) rotate(0) translate(4 736)">
<title>%3</title>
<polygon fill="white" stroke="transparent" points="-4,4 -4,-736 265.65,-736 265.65,4 -4,4"/>
<!-- S5 -->
<g id="node1" class="node">
<title>S5</title>
<ellipse fill="none" stroke="black" cx="140.65" cy="-453" rx="27" ry="18"/>
<text text-anchor="middle" x="140.65" y="-449.3" font-family="Times,serif" font-size="14.00">S5</text>
</g>
<!-- S7 -->
<g id="node2" class="node">
<title>S7</title>
<ellipse fill="none" stroke="black" cx="90.65" cy="-366" rx="27" ry="18"/>
<text text-anchor="middle" x="90.65" y="-362.3" font-family="Times,serif" font-size="14.00">S7</text>
</g>
<!-- S5&#45;&gt;S7 -->
<g id="edge1" class="edge">
<title>S5&#45;&gt;S7</title>
<path fill="none" stroke="black" d="M131.24,-436.01C123.91,-423.55 113.6,-406.01 105.2,-391.74"/>
<polygon fill="black" stroke="black" points="108.1,-389.76 100.01,-382.92 102.06,-393.31 108.1,-389.76"/>
<text text-anchor="middle" x="121.15" y="-405.8" font-family="Times,serif" font-size="14.00"> </text>
</g>
<!-- S6 -->
<g id="node9" class="node">
<title>S6</title>
<ellipse fill="none" stroke="black" cx="162.65" cy="-366" rx="27" ry="18"/>
<text text-anchor="middle" x="162.65" y="-362.3" font-family="Times,serif" font-size="14.00">S6</text>
</g>
<!-- S5&#45;&gt;S6 -->
<g id="edge10" class="edge">
<title>S5&#45;&gt;S6</title>
<path fill="none" stroke="black" d="M136.02,-434.94C134.15,-425.08 133.15,-412.58 136.65,-402 138.04,-397.8 140.15,-393.69 142.58,-389.85"/>
<polygon fill="black" stroke="black" points="145.62,-391.61 148.65,-381.46 139.95,-387.51 145.62,-391.61"/>
<text text-anchor="middle" x="141.15" y="-405.8" font-family="Times,serif" font-size="14.00">a</text>
</g>
<!-- S8 -->
<g id="node3" class="node">
<title>S8</title>
<ellipse fill="none" stroke="black" cx="162.65" cy="-279" rx="27" ry="18"/>
<text text-anchor="middle" x="162.65" y="-275.3" font-family="Times,serif" font-size="14.00">S8</text>
</g>
<!-- S7&#45;&gt;S8 -->
<g id="edge2" class="edge">
<title>S7&#45;&gt;S8</title>
<path fill="none" stroke="black" d="M103.52,-349.8C114.58,-336.75 130.68,-317.74 143.29,-302.85"/>
<polygon fill="black" stroke="black" points="146.09,-304.96 149.89,-295.06 140.75,-300.43 146.09,-304.96"/>
<text text-anchor="middle" x="133.15" y="-318.8" font-family="Times,serif" font-size="14.00"> </text>
</g>
<!-- Finish -->
<g id="node4" class="node">
<title>Finish</title>
<ellipse fill="none" stroke="black" cx="39.65" cy="-192" rx="39.79" ry="18"/>
<text text-anchor="middle" x="39.65" y="-188.3" font-family="Times,serif" font-size="14.00">Finish</text>
</g>
<!-- S8&#45;&gt;Finish -->
<g id="edge3" class="edge">
<title>S8&#45;&gt;Finish</title>
<path fill="none" stroke="black" d="M144.5,-265.46C124.71,-251.78 92.73,-229.68 69.28,-213.48"/>
<polygon fill="black" stroke="black" points="70.98,-210.4 60.76,-207.59 67,-216.16 70.98,-210.4"/>
<text text-anchor="middle" x="111.15" y="-231.8" font-family="Times,serif" font-size="14.00"> </text>
</g>
<!-- S11 -->
<g id="node7" class="node">
<title>S11</title>
<ellipse fill="none" stroke="black" cx="125.65" cy="-192" rx="28.7" ry="18"/>
<text text-anchor="middle" x="125.65" y="-188.3" font-family="Times,serif" font-size="14.00">S11</text>
</g>
<!-- S8&#45;&gt;S11 -->
<g id="edge13" class="edge">
<title>S8&#45;&gt;S11</title>
<path fill="none" stroke="black" d="M155.51,-261.61C150.27,-249.58 143.05,-232.98 137.02,-219.13"/>
<polygon fill="black" stroke="black" points="140.09,-217.4 132.88,-209.63 133.67,-220.19 140.09,-217.4"/>
<text text-anchor="middle" x="150.65" y="-231.8" font-family="Times,serif" font-size="14.00">b</text>
</g>
<!-- S9 -->
<g id="node13" class="node">
<title>S9</title>
<ellipse fill="none" stroke="black" cx="200.65" cy="-192" rx="27" ry="18"/>
<text text-anchor="middle" x="200.65" y="-188.3" font-family="Times,serif" font-size="14.00">S9</text>
</g>
<!-- S8&#45;&gt;S9 -->
<g id="edge12" class="edge">
<title>S8&#45;&gt;S9</title>
<path fill="none" stroke="black" d="M169.97,-261.61C175.39,-249.5 182.87,-232.77 189.09,-218.86"/>
<polygon fill="black" stroke="black" points="192.46,-219.9 193.34,-209.34 186.07,-217.04 192.46,-219.9"/>
<text text-anchor="middle" x="187.65" y="-231.8" font-family="Times,serif" font-size="14.00">c</text>
</g>
<!-- S1 -->
<g id="node5" class="node">
<title>S1</title>
<ellipse fill="none" stroke="black" cx="175.65" cy="-627" rx="27" ry="18"/>
<text text-anchor="middle" x="175.65" y="-623.3" font-family="Times,serif" font-size="14.00">S1</text>
</g>
<!-- S2 -->
<g id="node6" class="node">
<title>S2</title>
<ellipse fill="none" stroke="black" cx="175.65" cy="-540" rx="27" ry="18"/>
<text text-anchor="middle" x="175.65" y="-536.3" font-family="Times,serif" font-size="14.00">S2</text>
</g>
<!-- S1&#45;&gt;S2 -->
<g id="edge4" class="edge">
<title>S1&#45;&gt;S2</title>
<path fill="none" stroke="black" d="M166.6,-609.97C162.18,-600.25 158.28,-587.54 160.65,-576 161.28,-572.93 162.19,-569.79 163.26,-566.72"/>
<polygon fill="black" stroke="black" points="166.57,-567.87 167.05,-557.29 160.07,-565.26 166.57,-567.87"/>
<text text-anchor="middle" x="165.65" y="-579.8" font-family="Times,serif" font-size="14.00">b</text>
</g>
<!-- S1&#45;&gt;S2 -->
<g id="edge17" class="edge">
<title>S1&#45;&gt;S2</title>
<path fill="none" stroke="black" d="M175.65,-608.8C175.65,-597.16 175.65,-581.55 175.65,-568.24"/>
<polygon fill="black" stroke="black" points="179.15,-568.18 175.65,-558.18 172.15,-568.18 179.15,-568.18"/>
<text text-anchor="middle" x="178.15" y="-579.8" font-family="Times,serif" font-size="14.00"> </text>
</g>
<!-- S2&#45;&gt;S5 -->
<g id="edge14" class="edge">
<title>S2&#45;&gt;S5</title>
<path fill="none" stroke="black" d="M168.73,-522.21C163.76,-510.14 156.97,-493.64 151.31,-479.89"/>
<polygon fill="black" stroke="black" points="154.47,-478.38 147.43,-470.47 148,-481.05 154.47,-478.38"/>
<text text-anchor="middle" x="164.65" y="-492.8" font-family="Times,serif" font-size="14.00">b</text>
</g>
<!-- S3 -->
<g id="node11" class="node">
<title>S3</title>
<ellipse fill="none" stroke="black" cx="216.65" cy="-453" rx="27" ry="18"/>
<text text-anchor="middle" x="216.65" y="-449.3" font-family="Times,serif" font-size="14.00">S3</text>
</g>
<!-- S2&#45;&gt;S3 -->
<g id="edge9" class="edge">
<title>S2&#45;&gt;S3</title>
<path fill="none" stroke="black" d="M183.55,-522.61C189.45,-510.38 197.62,-493.44 204.37,-479.46"/>
<polygon fill="black" stroke="black" points="207.57,-480.87 208.77,-470.34 201.27,-477.82 207.57,-480.87"/>
<text text-anchor="middle" x="201.65" y="-492.8" font-family="Times,serif" font-size="14.00">c</text>
</g>
<!-- S12 -->
<g id="node8" class="node">
<title>S12</title>
<ellipse fill="none" stroke="black" cx="50.65" cy="-105" rx="28.7" ry="18"/>
<text text-anchor="middle" x="50.65" y="-101.3" font-family="Times,serif" font-size="14.00">S12</text>
</g>
<!-- S11&#45;&gt;S12 -->
<g id="edge5" class="edge">
<title>S11&#45;&gt;S12</title>
<path fill="none" stroke="black" d="M103.15,-180.88C87.35,-173.35 68.1,-163.17 62.65,-156 57.69,-149.48 54.75,-141.2 53.01,-133.27"/>
<polygon fill="black" stroke="black" points="56.43,-132.52 51.35,-123.22 49.52,-133.66 56.43,-132.52"/>
<text text-anchor="middle" x="67.15" y="-144.8" font-family="Times,serif" font-size="14.00">a</text>
</g>
<!-- S13 -->
<g id="node14" class="node">
<title>S13</title>
<ellipse fill="none" stroke="black" cx="125.65" cy="-105" rx="28.7" ry="18"/>
<text text-anchor="middle" x="125.65" y="-101.3" font-family="Times,serif" font-size="14.00">S13</text>
</g>
<!-- S11&#45;&gt;S13 -->
<g id="edge15" class="edge">
<title>S11&#45;&gt;S13</title>
<path fill="none" stroke="black" d="M125.65,-173.8C125.65,-162.16 125.65,-146.55 125.65,-133.24"/>
<polygon fill="black" stroke="black" points="129.15,-133.18 125.65,-123.18 122.15,-133.18 129.15,-133.18"/>
<text text-anchor="middle" x="128.15" y="-144.8" font-family="Times,serif" font-size="14.00"> </text>
</g>
<!-- S12&#45;&gt;S11 -->
<g id="edge6" class="edge">
<title>S12&#45;&gt;S11</title>
<path fill="none" stroke="black" d="M63.94,-121.06C75.42,-134.08 92.19,-153.09 105.35,-168"/>
<polygon fill="black" stroke="black" points="103,-170.62 112.24,-175.8 108.25,-165.99 103,-170.62"/>
<text text-anchor="middle" x="95.15" y="-144.8" font-family="Times,serif" font-size="14.00"> </text>
</g>
<!-- S6&#45;&gt;S5 -->
<g id="edge7" class="edge">
<title>S6&#45;&gt;S5</title>
<path fill="none" stroke="black" d="M158.23,-384.05C155.16,-395.91 151.01,-411.95 147.51,-425.47"/>
<polygon fill="black" stroke="black" points="144.11,-424.65 144.99,-435.21 150.89,-426.4 144.11,-424.65"/>
<text text-anchor="middle" x="155.15" y="-405.8" font-family="Times,serif" font-size="14.00"> </text>
</g>
<!-- S14 -->
<g id="node10" class="node">
<title>S14</title>
<ellipse fill="none" stroke="black" cx="200.65" cy="-18" rx="28.7" ry="18"/>
<text text-anchor="middle" x="200.65" y="-14.3" font-family="Times,serif" font-size="14.00">S14</text>
</g>
<!-- S14&#45;&gt;S8 -->
<g id="edge8" class="edge">
<title>S14&#45;&gt;S8</title>
<path fill="none" stroke="black" d="M212.35,-34.49C221.53,-47.66 233.57,-67.5 238.65,-87 252.43,-139.91 259.2,-160.2 236.65,-210 227.02,-231.25 207.27,-248.85 190.59,-260.82"/>
<polygon fill="black" stroke="black" points="188.49,-258.01 182.22,-266.55 192.44,-263.79 188.49,-258.01"/>
<text text-anchor="middle" x="253.15" y="-144.8" font-family="Times,serif" font-size="14.00"> </text>
</g>
<!-- S4 -->
<g id="node15" class="node">
<title>S4</title>
<ellipse fill="none" stroke="black" cx="234.65" cy="-366" rx="27" ry="18"/>
<text text-anchor="middle" x="234.65" y="-362.3" font-family="Times,serif" font-size="14.00">S4</text>
</g>
<!-- S3&#45;&gt;S4 -->
<g id="edge20" class="edge">
<title>S3&#45;&gt;S4</title>
<path fill="none" stroke="black" d="M220.29,-434.8C222.77,-423.09 226.1,-407.34 228.93,-393.97"/>
<polygon fill="black" stroke="black" points="232.42,-394.39 231.07,-383.89 225.57,-392.94 232.42,-394.39"/>
<text text-anchor="middle" x="231.65" y="-405.8" font-family="Times,serif" font-size="14.00">d</text>
</g>
<!-- S10 -->
<g id="node12" class="node">
<title>S10</title>
<ellipse fill="none" stroke="black" cx="200.65" cy="-105" rx="28.7" ry="18"/>
<text text-anchor="middle" x="200.65" y="-101.3" font-family="Times,serif" font-size="14.00">S10</text>
</g>
<!-- S10&#45;&gt;S14 -->
<g id="edge11" class="edge">
<title>S10&#45;&gt;S14</title>
<path fill="none" stroke="black" d="M200.65,-86.8C200.65,-75.16 200.65,-59.55 200.65,-46.24"/>
<polygon fill="black" stroke="black" points="204.15,-46.18 200.65,-36.18 197.15,-46.18 204.15,-46.18"/>
<text text-anchor="middle" x="203.15" y="-57.8" font-family="Times,serif" font-size="14.00"> </text>
</g>
<!-- S9&#45;&gt;S10 -->
<g id="edge21" class="edge">
<title>S9&#45;&gt;S10</title>
<path fill="none" stroke="black" d="M200.65,-173.8C200.65,-162.16 200.65,-146.55 200.65,-133.24"/>
<polygon fill="black" stroke="black" points="204.15,-133.18 200.65,-123.18 197.15,-133.18 204.15,-133.18"/>
<text text-anchor="middle" x="205.65" y="-144.8" font-family="Times,serif" font-size="14.00">d</text>
</g>
<!-- S13&#45;&gt;S14 -->
<g id="edge19" class="edge">
<title>S13&#45;&gt;S14</title>
<path fill="none" stroke="black" d="M139.05,-88.8C150.57,-75.75 167.35,-56.74 180.49,-41.85"/>
<polygon fill="black" stroke="black" points="183.36,-43.88 187.35,-34.06 178.11,-39.25 183.36,-43.88"/>
<text text-anchor="middle" x="169.15" y="-57.8" font-family="Times,serif" font-size="14.00"> </text>
</g>
<!-- S4&#45;&gt;S8 -->
<g id="edge16" class="edge">
<title>S4&#45;&gt;S8</title>
<path fill="none" stroke="black" d="M221.77,-349.8C210.72,-336.75 194.61,-317.74 182,-302.85"/>
<polygon fill="black" stroke="black" points="184.54,-300.43 175.41,-295.06 179.2,-304.96 184.54,-300.43"/>
<text text-anchor="middle" x="205.15" y="-318.8" font-family="Times,serif" font-size="14.00"> </text>
</g>
<!-- Start -->
<g id="node16" class="node">
<title>Start</title>
<ellipse fill="none" stroke="black" cx="175.65" cy="-714" rx="34.39" ry="18"/>
<text text-anchor="middle" x="175.65" y="-710.3" font-family="Times,serif" font-size="14.00">Start</text>
</g>
<!-- Start&#45;&gt;S1 -->
<g id="edge18" class="edge">
<title>Start&#45;&gt;S1</title>
<path fill="none" stroke="black" d="M175.65,-695.8C175.65,-684.16 175.65,-668.55 175.65,-655.24"/>
<polygon fill="black" stroke="black" points="179.15,-655.18 175.65,-645.18 172.15,-655.18 179.15,-655.18"/>
<text text-anchor="middle" x="180.15" y="-666.8" font-family="Times,serif" font-size="14.00">a</text>
</g>
</g>
</svg>
