<?xml version="1.0" encoding="UTF-8" standalone="no"?>
<!DOCTYPE svg PUBLIC "-//W3C//DTD SVG 1.1//EN"
 "http://www.w3.org/Graphics/SVG/1.1/DTD/svg11.dtd">
<!-- Generated by graphviz version 2.43.0 (0)
 -->
<!-- Title: %3 Pages: 1 -->
<svg width="210pt" height="566pt"
 viewBox="0.00 0.00 209.60 566.00" xmlns="http://www.w3.org/2000/svg" xmlns:xlink="http://www.w3.org/1999/xlink">
<g id="graph0" class="graph" transform="scale(1 1) rotate(0) translate(4 562)">
<title>%3</title>
<polygon fill="white" stroke="transparent" points="-4,4 -4,-562 205.6,-562 205.6,4 -4,4"/>
<!-- Start -->
<g id="node1" class="node">
<title>Start</title>
<ellipse fill="none" stroke="blue" cx="139" cy="-540" rx="34.39" ry="18"/>
<text text-anchor="middle" x="139" y="-536.3" font-family="Times,serif" font-size="14.00">Start</text>
</g>
<!-- S2 -->
<g id="node7" class="node">
<title>S2</title>
<ellipse fill="none" stroke="black" cx="99" cy="-453" rx="27" ry="18"/>
<text text-anchor="middle" x="99" y="-449.3" font-family="Times,serif" font-size="14.00">S2</text>
</g>
<!-- Start&#45;&gt;S2 -->
<g id="edge3" class="edge">
<title>Start&#45;&gt;S2</title>
<path fill="none" stroke="black" d="M131.1,-522.21C125.42,-510.14 117.65,-493.64 111.18,-479.89"/>
<polygon fill="black" stroke="black" points="114.18,-478.03 106.75,-470.47 107.84,-481.01 114.18,-478.03"/>
<text text-anchor="middle" x="124.5" y="-492.8" font-family="Times,serif" font-size="14.00"> </text>
</g>
<!-- S1 -->
<g id="node10" class="node">
<title>S1</title>
<ellipse fill="none" stroke="black" cx="171" cy="-453" rx="27" ry="18"/>
<text text-anchor="middle" x="171" y="-449.3" font-family="Times,serif" font-size="14.00">S1</text>
</g>
<!-- Start&#45;&gt;S1 -->
<g id="edge5" class="edge">
<title>Start&#45;&gt;S1</title>
<path fill="none" stroke="black" d="M136.47,-521.76C135.71,-511.85 135.96,-499.35 140,-489 141.91,-484.12 144.83,-479.47 148.12,-475.25"/>
<polygon fill="black" stroke="black" points="150.78,-477.53 154.77,-467.71 145.53,-472.9 150.78,-477.53"/>
<text text-anchor="middle" x="144.5" y="-492.8" font-family="Times,serif" font-size="14.00">a</text>
</g>
<!-- Finish -->
<g id="node2" class="node">
<title>Finish</title>
<ellipse fill="none" stroke="green" cx="99" cy="-18" rx="39.79" ry="18"/>
<text text-anchor="middle" x="99" y="-14.3" font-family="Times,serif" font-size="14.00">Finish</text>
</g>
<!-- S5 -->
<g id="node3" class="node">
<title>S5</title>
<ellipse fill="none" stroke="black" cx="27" cy="-192" rx="27" ry="18"/>
<text text-anchor="middle" x="27" y="-188.3" font-family="Times,serif" font-size="14.00">S5</text>
</g>
<!-- S6 -->
<g id="node4" class="node">
<title>S6</title>
<ellipse fill="none" stroke="black" cx="27" cy="-105" rx="27" ry="18"/>
<text text-anchor="middle" x="27" y="-101.3" font-family="Times,serif" font-size="14.00">S6</text>
</g>
<!-- S5&#45;&gt;S6 -->
<g id="edge1" class="edge">
<title>S5&#45;&gt;S6</title>
<path fill="none" stroke="black" d="M27,-173.8C27,-162.16 27,-146.55 27,-133.24"/>
<polygon fill="black" stroke="black" points="30.5,-133.18 27,-123.18 23.5,-133.18 30.5,-133.18"/>
<text text-anchor="middle" x="32" y="-144.8" font-family="Times,serif" font-size="14.00">2</text>
</g>
<!-- S6&#45;&gt;Finish -->
<g id="edge9" class="edge">
<title>S6&#45;&gt;Finish</title>
<path fill="none" stroke="black" d="M39.87,-88.8C50.73,-75.99 66.44,-57.44 78.94,-42.68"/>
<polygon fill="black" stroke="black" points="81.71,-44.82 85.51,-34.93 76.37,-40.3 81.71,-44.82"/>
<text text-anchor="middle" x="70.5" y="-57.8" font-family="Times,serif" font-size="14.00"> </text>
</g>
<!-- S7 -->
<g id="node5" class="node">
<title>S7</title>
<ellipse fill="none" stroke="black" cx="99" cy="-192" rx="27" ry="18"/>
<text text-anchor="middle" x="99" y="-188.3" font-family="Times,serif" font-size="14.00">S7</text>
</g>
<!-- S8 -->
<g id="node6" class="node">
<title>S8</title>
<ellipse fill="none" stroke="black" cx="99" cy="-105" rx="27" ry="18"/>
<text text-anchor="middle" x="99" y="-101.3" font-family="Times,serif" font-size="14.00">S8</text>
</g>
<!-- S7&#45;&gt;S8 -->
<g id="edge2" class="edge">
<title>S7&#45;&gt;S8</title>
<path fill="none" stroke="black" d="M99,-173.8C99,-162.16 99,-146.55 99,-133.24"/>
<polygon fill="black" stroke="black" points="102.5,-133.18 99,-123.18 95.5,-133.18 102.5,-133.18"/>
<text text-anchor="middle" x="104" y="-144.8" font-family="Times,serif" font-size="14.00">4</text>
</g>
<!-- S8&#45;&gt;Finish -->
<g id="edge14" class="edge">
<title>S8&#45;&gt;Finish</title>
<path fill="none" stroke="black" d="M99,-86.8C99,-75.16 99,-59.55 99,-46.24"/>
<polygon fill="black" stroke="black" points="102.5,-46.18 99,-36.18 95.5,-46.18 102.5,-46.18"/>
<text text-anchor="middle" x="101.5" y="-57.8" font-family="Times,serif" font-size="14.00"> </text>
</g>
<!-- S3 -->
<g id="node11" class="node">
<title>S3</title>
<ellipse fill="none" stroke="black" cx="99" cy="-366" rx="27" ry="18"/>
<text text-anchor="middle" x="99" y="-362.3" font-family="Times,serif" font-size="14.00">S3</text>
</g>
<!-- S2&#45;&gt;S3 -->
<g id="edge6" class="edge">
<title>S2&#45;&gt;S3</title>
<path fill="none" stroke="black" d="M99,-434.8C99,-423.16 99,-407.55 99,-394.24"/>
<polygon fill="black" stroke="black" points="102.5,-394.18 99,-384.18 95.5,-394.18 102.5,-394.18"/>
<text text-anchor="middle" x="104" y="-405.8" font-family="Times,serif" font-size="14.00">b</text>
</g>
<!-- S9 -->
<g id="node8" class="node">
<title>S9</title>
<ellipse fill="none" stroke="black" cx="172" cy="-192" rx="27" ry="18"/>
<text text-anchor="middle" x="172" y="-188.3" font-family="Times,serif" font-size="14.00">S9</text>
</g>
<!-- S10 -->
<g id="node9" class="node">
<title>S10</title>
<ellipse fill="none" stroke="black" cx="173" cy="-105" rx="28.7" ry="18"/>
<text text-anchor="middle" x="173" y="-101.3" font-family="Times,serif" font-size="14.00">S10</text>
</g>
<!-- S9&#45;&gt;S10 -->
<g id="edge4" class="edge">
<title>S9&#45;&gt;S10</title>
<path fill="none" stroke="black" d="M172.2,-173.8C172.34,-162.16 172.52,-146.55 172.68,-133.24"/>
<polygon fill="black" stroke="black" points="176.18,-133.22 172.8,-123.18 169.18,-133.13 176.18,-133.22"/>
<text text-anchor="middle" x="177" y="-144.8" font-family="Times,serif" font-size="14.00">8</text>
</g>
<!-- S10&#45;&gt;Finish -->
<g id="edge10" class="edge">
<title>S10&#45;&gt;Finish</title>
<path fill="none" stroke="black" d="M159.77,-88.8C148.62,-75.99 132.46,-57.44 119.61,-42.68"/>
<polygon fill="black" stroke="black" points="122.07,-40.17 112.87,-34.93 116.8,-44.77 122.07,-40.17"/>
<text text-anchor="middle" x="142.5" y="-57.8" font-family="Times,serif" font-size="14.00"> </text>
</g>
<!-- S1&#45;&gt;Start -->
<g id="edge7" class="edge">
<title>S1&#45;&gt;Start</title>
<path fill="none" stroke="black" d="M164.69,-470.76C160.18,-482.74 154.02,-499.1 148.86,-512.8"/>
<polygon fill="black" stroke="black" points="145.57,-511.61 145.32,-522.21 152.12,-514.08 145.57,-511.61"/>
<text text-anchor="middle" x="158.5" y="-492.8" font-family="Times,serif" font-size="14.00"> </text>
</g>
<!-- S4 -->
<g id="node12" class="node">
<title>S4</title>
<ellipse fill="none" stroke="black" cx="99" cy="-279" rx="27" ry="18"/>
<text text-anchor="middle" x="99" y="-275.3" font-family="Times,serif" font-size="14.00">S4</text>
</g>
<!-- S3&#45;&gt;S4 -->
<g id="edge11" class="edge">
<title>S3&#45;&gt;S4</title>
<path fill="none" stroke="black" d="M93.32,-347.94C90.76,-338.31 88.61,-326.03 90,-315 90.34,-312.29 90.83,-309.49 91.4,-306.71"/>
<polygon fill="black" stroke="black" points="94.82,-307.46 93.73,-296.92 88.01,-305.84 94.82,-307.46"/>
<text text-anchor="middle" x="92.5" y="-318.8" font-family="Times,serif" font-size="14.00"> </text>
</g>
<!-- S3&#45;&gt;S4 -->
<g id="edge15" class="edge">
<title>S3&#45;&gt;S4</title>
<path fill="none" stroke="purple" d="M99,-347.8C99,-336.16 99,-320.55 99,-307.24"/>
<polygon fill="purple" stroke="purple" points="102.5,-307.18 99,-297.18 95.5,-307.18 102.5,-307.18"/>
<text text-anchor="middle" x="117.5" y="-318.8" font-family="Times,serif" font-size="14.00">^xyz</text>
</g>
<!-- S4&#45;&gt;S5 -->
<g id="edge12" class="edge">
<title>S4&#45;&gt;S5</title>
<path fill="none" stroke="black" d="M86.13,-262.8C75.07,-249.75 58.96,-230.74 46.35,-215.85"/>
<polygon fill="black" stroke="black" points="48.89,-213.43 39.76,-208.06 43.55,-217.96 48.89,-213.43"/>
<text text-anchor="middle" x="73" y="-231.8" font-family="Times,serif" font-size="14.00">1</text>
</g>
<!-- S4&#45;&gt;S7 -->
<g id="edge13" class="edge">
<title>S4&#45;&gt;S7</title>
<path fill="none" stroke="black" d="M99,-260.8C99,-249.16 99,-233.55 99,-220.24"/>
<polygon fill="black" stroke="black" points="102.5,-220.18 99,-210.18 95.5,-220.18 102.5,-220.18"/>
<text text-anchor="middle" x="104" y="-231.8" font-family="Times,serif" font-size="14.00">2</text>
</g>
<!-- S4&#45;&gt;S9 -->
<g id="edge8" class="edge">
<title>S4&#45;&gt;S9</title>
<path fill="none" stroke="black" d="M112.05,-262.8C123.26,-249.75 139.59,-230.74 152.38,-215.85"/>
<polygon fill="black" stroke="black" points="155.2,-217.93 159.06,-208.06 149.89,-213.37 155.2,-217.93"/>
<text text-anchor="middle" x="144" y="-231.8" font-family="Times,serif" font-size="14.00">4</text>
</g>
</g>
</svg>
